<svg xmlns="http://www.w3.org/2000/svg" width="30" height="30" fill="none"><path fill="#fff" d="M15 0c-4.07 0-4.58.02-6.18.09-1.6.08-2.7.33-3.65.7-1 .37-1.9.96-2.65 1.73A7.36 7.36 0 00.79 5.17c-.37.96-.63 2.05-.7 3.64-.07 1.6-.09 2.12-.09 6.2 0 4.06.02 4.57.09 6.17.08 1.6.33 2.7.7 3.64.38 1 .9 1.83 1.73 2.66a7.32 7.32 0 002.65 1.73c.96.37 2.05.63 3.64.7 1.6.07 2.12.09 6.19.09s4.58-.02 6.18-.09c1.6-.07 2.7-.33 3.65-.7 1-.37 1.9-.96 2.65-1.73a7.37 7.37 0 001.73-2.66c.37-.95.63-2.04.7-3.64.07-1.6.09-2.1.09-6.18 0-4.07-.02-4.58-.09-6.19-.07-1.6-.33-2.68-.7-3.64-.37-1-.97-1.9-1.73-2.65A7.33 7.33 0 0024.82.79c-.95-.37-2.04-.63-3.64-.7C19.58.02 19.08 0 15 0zm-1.34 2.7H15c4 0 4.48.02 6.06.09 1.46.07 2.26.31 2.79.52.7.27 1.2.6 1.72 1.12.53.52.85 1.02 1.12 1.72.21.53.45 1.33.52 2.79.07 1.58.09 2.05.09 6.06 0 4-.02 4.48-.09 6.06a8.3 8.3 0 01-.52 2.78 4.63 4.63 0 01-1.12 1.72c-.52.53-1.02.85-1.72 1.13-.53.2-1.32.45-2.79.51-1.58.07-2.05.1-6.06.1-4 0-4.48-.03-6.06-.1a8.28 8.28 0 01-2.78-.52 4.65 4.65 0 01-1.73-1.12 4.65 4.65 0 01-1.12-1.72 8.29 8.29 0 01-.52-2.79C2.72 19.47 2.7 19 2.7 15c0-4 .02-4.47.09-6.06a8.3 8.3 0 01.52-2.78c.27-.7.6-1.2 1.12-1.73A4.63 4.63 0 016.16 3.3c.52-.2 1.32-.45 2.78-.52 1.38-.06 1.92-.08 4.72-.08zM23 5.2a1.8 1.8 0 100 3.6 1.8 1.8 0 000-3.6zm-8 2.1a7.7 7.7 0 10-.25 15.4A7.7 7.7 0 0015 7.3zm0 2.7a5 5 0 110 10 5 5 0 010-10z"/></svg>