<svg xmlns="http://www.w3.org/2000/svg" width="35" height="28" fill="none"><path fill="#fff" d="M23.2 12.94l-7.5-5.12a1.23 1.23 0 00-1.77.4c-.12.2-.18.43-.18.67V19.1a1.3 1.3 0 00.66 1.13 1.23 1.23 0 001.28-.06l7.5-5.12a1.27 1.27 0 00.56-1.06 1.3 1.3 0 00-.56-1.06zm-6.95 3.79v-5.46l4 2.73-4 2.73zM34.11 4.7a3.86 3.86 0 00-2.26-2.61C26.49-.02 17.97-.01 17.5 0c-.47 0-9-.02-14.35 2.09A3.75 3.75 0 00.9 4.69C.49 6.3 0 9.2 0 14c0 4.81.48 7.72.89 9.3a3.86 3.86 0 002.26 2.62C8.28 27.93 16.31 28 17.4 28h.2c1.09 0 9.12-.07 14.25-2.08a3.74 3.74 0 002.26-2.62c.4-1.58.89-4.49.89-9.3 0-4.81-.48-7.72-.89-9.3zM31.7 22.66a1.28 1.28 0 01-.75.87c-4.94 1.94-13.36 1.91-13.44 1.91h-.02c-.08 0-8.49.03-13.44-1.91a1.24 1.24 0 01-.74-.87c-.37-1.44-.81-4.12-.81-8.66s.44-7.22.8-8.66a1.28 1.28 0 01.75-.87C8.82 2.6 16.8 2.56 17.47 2.56h.04c.08 0 8.5-.03 13.44 1.91a1.24 1.24 0 01.74.87c.37 1.44.81 4.12.81 8.66s-.44 7.22-.8 8.66z"/></svg>