<svg width="25" height="25" viewBox="0 0 25 25" fill="none" xmlns="http://www.w3.org/2000/svg">
<path fill-rule="evenodd" clip-rule="evenodd" d="M6.13286 2.72665C6.04632 2.61564 5.93719 2.52428 5.81268 2.45862C5.68818 2.39296 5.55115 2.3545 5.41066 2.34579C5.27018 2.33707 5.12944 2.3583 4.99778 2.40806C4.86611 2.45783 4.74652 2.535 4.64692 2.63446L3.1313 4.15008C2.42349 4.8579 2.16255 5.86102 2.47349 6.74071C3.75587 10.3851 5.84236 13.694 8.57817 16.422C11.3061 19.1577 14.615 21.2442 18.2594 22.5266C19.1391 22.836 20.1422 22.5766 20.85 21.8688L22.3657 20.3532C22.465 20.2535 22.5421 20.1338 22.5917 20.0021C22.6414 19.8704 22.6625 19.7296 22.6536 19.5891C22.6447 19.4486 22.6061 19.3116 22.5403 19.1872C22.4745 19.0627 22.383 18.9537 22.2719 18.8673L18.8938 16.2391C18.775 16.1468 18.6367 16.0826 18.4895 16.0515C18.3422 16.0204 18.1898 16.0231 18.0438 16.0595L14.8376 16.861C14.4093 16.9683 13.9605 16.9627 13.535 16.845C13.1094 16.7272 12.7217 16.5013 12.4094 16.1891L8.81255 12.5907C8.5004 12.2785 8.27445 11.8907 8.15671 11.4652C8.03896 11.0396 8.03344 10.5909 8.14067 10.1626L8.94224 6.95633C8.97861 6.81029 8.98133 6.6579 8.9502 6.51066C8.91908 6.36341 8.85491 6.22516 8.76255 6.10633L6.13286 2.72665ZM3.54224 1.53133C3.79859 1.27514 4.1065 1.07639 4.44552 0.948267C4.78454 0.820142 5.14693 0.765574 5.50865 0.788181C5.87037 0.810789 6.22315 0.910056 6.54358 1.0794C6.86402 1.24874 7.14478 1.48428 7.36724 1.7704L9.9938 5.14852C10.4766 5.76727 10.6469 6.57508 10.4563 7.33602L9.65474 10.5438C9.61305 10.7103 9.61518 10.8847 9.6609 11.0501C9.70663 11.2155 9.7944 11.3662 9.91568 11.4876L13.5157 15.0845C13.6371 15.2057 13.7878 15.2935 13.9532 15.3392C14.1186 15.385 14.293 15.3871 14.4594 15.3454L17.6657 14.5438C18.0417 14.4499 18.4342 14.4427 18.8135 14.5229C19.1927 14.603 19.5488 14.7683 19.8547 15.0063L23.2329 17.6329C24.4469 18.5766 24.5594 20.372 23.4719 21.4579L21.9563 22.9735C20.8735 24.0563 19.2532 24.5329 17.7422 24.0016C13.8772 22.6412 10.3681 20.4282 7.47505 17.5266C4.57292 14.6337 2.35934 11.1246 0.998486 7.25946C0.467236 5.74852 0.943799 4.12821 2.02661 3.04383L3.54224 1.52977V1.53133Z" fill="#F7FBFF"/>
</svg>
