<svg width="27" height="25" viewBox="0 0 27 25" fill="none" xmlns="http://www.w3.org/2000/svg">
<path fill-rule="evenodd" clip-rule="evenodd" d="M7.10324 2.72656C7.01514 2.61555 6.90403 2.52419 6.77728 2.45854C6.65053 2.39288 6.51103 2.35442 6.368 2.3457C6.22498 2.33699 6.08171 2.35821 5.94767 2.40798C5.81363 2.45775 5.69188 2.53491 5.59048 2.63437L4.0475 4.15C3.32692 4.85781 3.06127 5.86094 3.37782 6.74062C4.68335 10.385 6.8075 13.6939 9.59268 16.4219C12.3699 19.1576 15.7385 21.2441 19.4487 22.5266C20.3442 22.8359 21.3654 22.5766 22.086 21.8687L23.629 20.3531C23.7302 20.2534 23.8086 20.1337 23.8592 20.002C23.9097 19.8703 23.9312 19.7295 23.9221 19.589C23.9131 19.4485 23.8738 19.3115 23.8068 19.1871C23.7398 19.0627 23.6467 18.9536 23.5336 18.8672L20.0945 16.2391C19.9735 16.1467 19.8328 16.0825 19.6829 16.0514C19.533 16.0203 19.3778 16.023 19.2291 16.0594L15.965 16.8609C15.529 16.9682 15.0721 16.9626 14.6389 16.8449C14.2057 16.7272 13.811 16.5012 13.4931 16.1891L9.83129 12.5906C9.51351 12.2784 9.28348 11.8906 9.16361 11.4651C9.04374 11.0396 9.03812 10.5908 9.14729 10.1625L9.96332 6.95625C10.0003 6.81021 10.0031 6.65782 9.97143 6.51057C9.93974 6.36333 9.87441 6.22508 9.78039 6.10625L7.10324 2.72656ZM4.46586 1.53125C4.72684 1.27506 5.0403 1.07631 5.38544 0.948183C5.73058 0.820058 6.09952 0.76549 6.46777 0.788098C6.83601 0.810705 7.19516 0.909972 7.52137 1.07931C7.84759 1.24865 8.13342 1.48419 8.35989 1.77031L11.0339 5.14844C11.5254 5.76719 11.6988 6.575 11.5047 7.33594L10.6887 10.5437C10.6462 10.7102 10.6484 10.8846 10.695 11.05C10.7415 11.2154 10.8309 11.3661 10.9543 11.4875L14.6193 15.0844C14.7429 15.2056 14.8963 15.2934 15.0647 15.3391C15.2331 15.3849 15.4106 15.387 15.5801 15.3453L18.8442 14.5437C19.227 14.4498 19.6266 14.4427 20.0127 14.5228C20.3988 14.6029 20.7613 14.7682 21.0728 15.0062L24.5119 17.6328C25.7478 18.5766 25.8624 20.3719 24.7552 21.4578L23.2122 22.9734C22.1099 24.0562 20.4603 24.5328 18.9221 24.0016C14.9874 22.6412 11.4149 20.4281 8.46965 17.5266C5.51515 14.6337 3.26161 11.1245 1.8762 7.25937C1.33536 5.74844 1.82053 4.12812 2.92288 3.04375L4.46586 1.52969V1.53125Z" fill="black"/>
</svg>
