<svg width="35" height="28" viewBox="0 0 35 28" fill="none" xmlns="http://www.w3.org/2000/svg">
<path d="M23.1934 12.9363L15.6934 7.8218C15.5052 7.69341 15.2864 7.61969 15.0604 7.60851C14.8344 7.59732 14.6097 7.64909 14.4102 7.75828C14.2107 7.86748 14.044 8.03001 13.9277 8.22855C13.8114 8.42708 13.75 8.65418 13.75 8.88561V19.1146C13.75 19.346 13.8114 19.5731 13.9277 19.7716C14.044 19.9702 14.2107 20.1327 14.4102 20.2419C14.6097 20.3511 14.8344 20.4028 15.0604 20.3917C15.2864 20.3805 15.5052 20.3068 15.6934 20.1784L23.1934 15.0639C23.3646 14.9471 23.505 14.7889 23.6021 14.6034C23.6992 14.4178 23.75 14.2106 23.75 14.0001C23.75 13.7896 23.6992 13.5824 23.6021 13.3968C23.505 13.2112 23.3646 13.053 23.1934 12.9363ZM16.25 16.7255V11.2747L20.2466 14.0001L16.25 16.7255ZM34.1141 4.69765C33.9658 4.10959 33.6831 3.56601 33.289 3.11176C32.895 2.65752 32.401 2.30562 31.8478 2.08512C26.4931 -0.0198089 17.9656 -0.00382606 17.5 0.000489279C17.0345 -0.00398589 8.50688 -0.019649 3.15234 2.08512C2.59913 2.30561 2.1051 2.6575 1.71101 3.11175C1.31691 3.56599 1.03406 4.10958 0.885781 4.69765C0.481719 6.28474 0 9.1872 0 14.0001C0 18.8131 0.481719 21.7153 0.885938 23.3025C1.03416 23.8906 1.31696 24.4341 1.711 24.8884C2.10503 25.3426 2.59902 25.6945 3.15219 25.9151C8.27812 27.93 16.3119 28 17.397 28H17.603C18.6889 28 26.722 27.9297 31.8477 25.9151C32.4009 25.6946 32.8949 25.3427 33.289 24.8884C33.6831 24.4342 33.9659 23.8906 34.1142 23.3025C34.5183 21.7154 35 18.813 35 14.0001C35 9.18689 34.5183 6.28474 34.1141 4.69765V4.69765ZM31.695 22.6579C31.6473 22.8529 31.555 23.0334 31.4256 23.1847C31.2963 23.3359 31.1336 23.4536 30.9511 23.5279C26.0052 25.472 17.5922 25.4434 17.508 25.4426H17.4923C17.408 25.4453 9.00234 25.4749 4.04922 23.5279C3.86669 23.4536 3.70405 23.3359 3.57471 23.1847C3.44537 23.0334 3.35303 22.8529 3.30531 22.6579C2.93797 21.2155 2.5 18.5424 2.5 14.0001C2.5 9.45779 2.93781 6.78468 3.30516 5.34224C3.35287 5.1473 3.44521 4.96676 3.57455 4.81551C3.70389 4.66425 3.86654 4.54662 4.04906 4.4723C8.81844 2.59752 16.8114 2.55757 17.4656 2.55757H17.5078C17.5922 2.55517 26.0052 2.52816 30.9509 4.4723C31.1335 4.54659 31.2961 4.66422 31.4255 4.81548C31.5548 4.96674 31.6471 5.14729 31.6948 5.34224C32.062 6.78468 32.5 9.45779 32.5 14.0001C32.5 18.5424 32.0622 21.2155 31.6948 22.6579H31.695Z" fill="white"/>
</svg>
